<svg xmlns="http://www.w3.org/2000/svg" xmlns:xlink="http://www.w3.org/1999/xlink" width="180" zoomAndPan="magnify" viewBox="0 0 135 60.75" height="81" preserveAspectRatio="xMidYMid meet" version="1.0"><defs><g/><clipPath id="75ab64f321"><path d="M 0.277344 0 L 134.722656 0 L 134.722656 60.5 L 0.277344 60.5 Z M 0.277344 0 " clip-rule="nonzero"/></clipPath><clipPath id="4ac44b2e49"><path d="M 3.632812 0 L 78 0 L 78 60 L 3.632812 60 Z M 3.632812 0 " clip-rule="nonzero"/></clipPath></defs><g clip-path="url(#75ab64f321)"><path fill="#ffffff" d="M 0.277344 0 L 134.722656 0 L 134.722656 60.5 L 0.277344 60.5 Z M 0.277344 0 " fill-opacity="1" fill-rule="nonzero"/></g><path fill="#010101" d="M 17.203125 56.449219 L 17.972656 34.070312 C 17.746094 40.4375 17.148438 45.175781 16.59375 48.351562 C 15.996094 51.785156 16.378906 54.523438 11.957031 52.832031 C 9.757812 51.988281 6.917969 50.136719 4.34375 47.699219 C 7.460938 50.898438 11.1875 54.0625 13.433594 55.582031 C 14.808594 56.511719 15.503906 56.800781 17.203125 56.449219 Z M 17.167969 46.980469 L 16.859375 56.160156 C 15.472656 56.40625 14.863281 56.128906 13.632812 55.292969 C 13.089844 54.929688 12.566406 54.546875 12.054688 54.148438 C 11.421875 53.65625 10.804688 53.15625 10.195312 52.640625 C 9.9375 52.425781 9.683594 52.214844 9.425781 51.988281 C 10.207031 52.4375 11.019531 52.84375 11.828125 53.164062 C 12.917969 53.570312 14.554688 54.085938 15.558594 53.238281 C 16.132812 52.746094 16.367188 51.925781 16.507812 51.207031 C 16.59375 50.769531 16.65625 50.320312 16.710938 49.882812 C 16.785156 49.390625 16.851562 48.898438 16.933594 48.40625 C 17.019531 47.933594 17.09375 47.453125 17.167969 46.980469 Z M 17.167969 46.980469 " fill-opacity="1" fill-rule="evenodd"/><g clip-path="url(#4ac44b2e49)"><path fill="#010101" d="M 37.140625 36.222656 L 36.289062 47.429688 C 36.203125 48.46875 36.105469 50.363281 36.929688 51.058594 L 31.640625 52.652344 C 29.304688 53.347656 28.585938 55.027344 24.804688 56.097656 L 19.574219 57.820312 C 17.210938 58.597656 14.636719 58.472656 12.566406 56.941406 C 9.949219 55.015625 5.550781 50.578125 3.765625 48.941406 L 9.136719 54.257812 C 11.230469 56.308594 14.96875 60.3125 18.300781 59.9375 C 19.347656 59.808594 25.082031 58.320312 26.996094 57.605469 C 28.332031 57.101562 29.527344 55.574219 31.472656 54.84375 C 33.839844 53.945312 37.195312 53.316406 39.257812 52.769531 L 41.917969 54.835938 C 42.566406 55.335938 43.359375 55.613281 44.160156 55.496094 C 45.773438 55.273438 48.644531 54.332031 50.972656 53.605469 L 51.003906 53.613281 C 57.511719 56.996094 67.539062 52.8125 73.402344 44.265625 C 78.925781 36.230469 78.785156 27.203125 73.328125 23.351562 L 71.949219 20.96875 L 72.132812 14.25 L 71.875 13.972656 C 71.820312 14.6875 71.800781 14.933594 70.808594 15.203125 L 69.34375 15.585938 L 69.398438 15.566406 L 70.777344 15.148438 C 71.800781 14.835938 71.726562 14.625 71.789062 13.875 C 71.769531 13.277344 71.757812 12.109375 71.578125 11.179688 L 67.550781 12.109375 C 67.550781 12.109375 71.703125 10.945312 71.136719 10.066406 C 71.105469 10.023438 71.074219 10.003906 71.042969 9.96875 L 62.65625 3.210938 C 62.65625 3.210938 61.292969 2 59.722656 2.117188 C 58.761719 2.183594 57.179688 2.652344 56.027344 2.972656 L 54.050781 1.378906 C 53.761719 1.144531 53.34375 0.921875 53.003906 0.757812 C 52.148438 0.34375 51.21875 0.0976562 50.28125 0.0117188 L 50.195312 0 L 50.109375 0.0195312 L 40.515625 2.300781 L 40.292969 2.355469 L 40.175781 2.566406 L 39.75 3.402344 C 38.96875 3.734375 38.167969 4.054688 37.410156 4.441406 C 36.898438 4.707031 36.40625 4.996094 35.988281 5.414062 C 35.539062 5.832031 35.199219 6.34375 34.855469 6.847656 C 34.289062 7.679688 33.746094 8.503906 33.148438 9.304688 L 32.847656 9.722656 L 32.871094 9.746094 L 25.648438 11.050781 C 23.71875 10.613281 21.226562 10.121094 19.070312 10.835938 C 18.003906 11.1875 16.871094 11.875 16.5625 13.210938 L 6.628906 15.691406 C 5.21875 16.195312 4.671875 17.402344 4.277344 18.71875 C 3.789062 20.367188 3.722656 21.371094 3.722656 21.371094 C 4.300781 22.027344 4.867188 22.625 5.398438 23.191406 C 5.390625 23.535156 5.390625 23.886719 5.398438 24.238281 L 5.398438 24.28125 L 5.421875 24.316406 C 5.558594 24.5625 5.742188 24.796875 5.921875 25.011719 C 6.179688 25.296875 6.445312 25.566406 6.722656 25.832031 C 7.40625 26.464844 8.15625 27.054688 8.933594 27.554688 C 9.40625 27.867188 9.90625 28.144531 10.429688 28.390625 L 10.644531 28.488281 L 10.664062 28.25 L 10.699219 27.984375 C 11.15625 28.324219 11.5625 28.605469 11.90625 28.828125 C 13.921875 30.1875 16.242188 31.109375 18.644531 30.988281 C 19.871094 30.925781 21.464844 30.496094 23.109375 29.960938 C 24.785156 29.417969 26.632812 28.785156 28.265625 28.144531 C 28.535156 28.039062 28.511719 27.972656 28.984375 27.46875 C 30.628906 25.714844 33.125 25.585938 35.347656 25.085938 C 35.65625 28.710938 33.734375 34.53125 37.140625 36.222656 Z M 36.628906 47.453125 L 37.503906 36.015625 L 37.292969 35.910156 C 36.898438 35.707031 36.554688 35.441406 36.289062 35.074219 C 35.753906 34.378906 35.550781 33.460938 35.476562 32.605469 C 35.378906 31.535156 35.453125 30.421875 35.53125 29.363281 C 35.59375 28.613281 35.65625 27.875 35.699219 27.128906 C 35.734375 26.441406 35.753906 25.746094 35.691406 25.0625 L 35.65625 24.65625 L 35.261719 24.742188 C 32.964844 25.265625 30.445312 25.394531 28.726562 27.234375 C 28.597656 27.363281 28.480469 27.503906 28.363281 27.640625 C 28.332031 27.671875 28.277344 27.738281 28.234375 27.769531 C 28.214844 27.792969 28.171875 27.800781 28.140625 27.8125 C 26.453125 28.488281 24.722656 29.0625 23 29.621094 C 22.222656 29.875 21.429688 30.125 20.640625 30.304688 C 19.988281 30.464844 19.296875 30.605469 18.621094 30.636719 C 18.066406 30.65625 17.511719 30.636719 16.96875 30.550781 C 15.214844 30.292969 13.558594 29.511719 12.097656 28.539062 C 11.691406 28.273438 11.296875 27.996094 10.910156 27.707031 L 11.1875 25.214844 C 11.230469 24.828125 11.316406 24.347656 11.636719 24.089844 C 11.796875 23.960938 12.011719 23.886719 12.214844 23.832031 C 12.867188 23.652344 14.039062 23.511719 14.328125 22.804688 C 14.5 22.410156 14.328125 22.027344 14.09375 21.703125 L 14.074219 21.671875 L 10.238281 18.550781 C 9.042969 17.574219 7.75 18.164062 6.585938 18.828125 C 5.828125 19.246094 5.515625 19.855469 5.398438 20.699219 C 5.3125 21.296875 5.261719 21.90625 5.238281 22.507812 C 4.84375 22.089844 4.460938 21.671875 4.085938 21.246094 C 4.105469 21.074219 4.128906 20.890625 4.160156 20.71875 C 4.265625 20.078125 4.425781 19.4375 4.609375 18.816406 C 4.984375 17.605469 5.453125 16.484375 6.734375 16.023438 L 16.847656 13.5 L 16.871094 13.433594 C 17.042969 14.214844 17.714844 14.859375 18.367188 15.285156 C 19.507812 16.054688 20.992188 16.496094 22.339844 16.675781 C 23.695312 16.867188 25.242188 16.847656 26.558594 16.417969 C 27.476562 16.121094 28.542969 15.519531 28.695312 14.453125 C 28.84375 13.390625 27.988281 12.515625 27.175781 11.980469 C 26.8125 11.734375 26.417969 11.519531 26.003906 11.347656 L 33.476562 9.992188 L 35.292969 11.316406 C 35.015625 11.445312 34.761719 11.59375 34.535156 11.753906 C 33.746094 12.332031 33.265625 13.144531 33.414062 14.140625 C 33.371094 14.246094 33.328125 14.367188 33.285156 14.484375 C 33.167969 14.855469 33.070312 15.253906 32.988281 15.636719 C 32.75 16.878906 32.71875 18.164062 32.945312 19.414062 L 32.964844 19.554688 L 33.082031 19.640625 C 33.433594 19.886719 33.839844 20.121094 34.214844 20.3125 C 35.144531 20.816406 36.148438 21.222656 37.164062 21.511719 C 40.292969 22.429688 43.507812 22.304688 46.507812 20.964844 C 46.808594 21.363281 47.265625 21.769531 47.660156 22.046875 C 48.589844 22.6875 49.671875 22.988281 50.792969 22.71875 L 50.800781 22.71875 L 70.058594 17.199219 L 69.960938 16.859375 C 69.867188 16.539062 69.738281 16.207031 69.601562 15.886719 L 70.902344 15.542969 C 71.191406 15.457031 71.511719 15.359375 71.757812 15.179688 L 71.597656 21.0625 L 73.058594 23.585938 L 73.125 23.640625 C 73.765625 24.089844 74.339844 24.625 74.832031 25.222656 C 76.753906 27.566406 77.320312 30.679688 77.074219 33.621094 C 76.777344 37.355469 75.21875 41.003906 73.113281 44.074219 C 70.464844 47.933594 66.664062 51.273438 62.316406 53.089844 C 60.542969 53.828125 58.640625 54.320312 56.71875 54.417969 C 55 54.503906 53.269531 54.257812 51.679688 53.550781 C 51.507812 53.476562 51.335938 53.390625 51.164062 53.304688 L 51.144531 53.292969 L 51.003906 53.21875 L 50.996094 53.230469 L 50.523438 52.929688 C 49.488281 52.289062 48.613281 51.441406 47.929688 50.4375 C 47.917969 50.425781 47.917969 50.417969 47.90625 50.40625 C 47.855469 50.339844 47.695312 50.234375 47.621094 50.179688 C 47.4375 50.042969 47.257812 49.902344 47.085938 49.753906 C 46.488281 49.25 45.941406 48.683594 45.460938 48.074219 C 43.964844 46.203125 43.15625 43.988281 43.175781 41.582031 L 43.175781 41.226562 L 42.480469 41.214844 L 42.117188 52.824219 L 42.117188 52.84375 C 42.140625 53.21875 42.246094 53.679688 42.40625 54.03125 C 42.652344 54.597656 43.058594 55.003906 43.601562 55.164062 C 43.070312 55.113281 42.554688 54.878906 42.128906 54.554688 L 39.339844 52.382812 L 39.171875 52.425781 C 38.476562 52.609375 37.78125 52.769531 37.089844 52.929688 C 36.285156 53.121094 35.476562 53.304688 34.675781 53.519531 C 33.550781 53.796875 32.429688 54.105469 31.351562 54.511719 C 30.390625 54.867188 29.601562 55.410156 28.789062 56.03125 C 28.222656 56.460938 27.539062 57.015625 26.867188 57.273438 C 26.3125 57.488281 25.722656 57.667969 25.148438 57.839844 C 24.390625 58.066406 23.621094 58.277344 22.851562 58.492188 C 21.898438 58.75 20.949219 58.996094 20 59.21875 C 19.636719 59.304688 19.285156 59.390625 18.921875 59.464844 C 18.707031 59.507812 18.484375 59.5625 18.269531 59.585938 C 16.828125 59.746094 15.320312 59.007812 14.0625 58.160156 C 15.84375 58.835938 17.820312 58.769531 19.679688 58.152344 L 24.902344 56.4375 C 26.042969 56.109375 27.101562 55.679688 28.117188 55.070312 C 28.488281 54.84375 28.851562 54.597656 29.214844 54.351562 C 29.535156 54.128906 29.847656 53.914062 30.179688 53.710938 C 30.679688 53.402344 31.171875 53.15625 31.738281 52.984375 L 37.652344 51.207031 L 37.152344 50.789062 C 36.449219 50.203125 36.566406 48.289062 36.628906 47.453125 Z M 69.621094 16.957031 L 50.707031 22.378906 C 48.378906 22.925781 46.753906 20.71875 46.753906 20.71875 C 47.707031 17.242188 47.105469 15.15625 47.105469 15.15625 C 47.609375 17.726562 46.445312 20.613281 46.445312 20.613281 C 39.4375 23.78125 33.285156 19.351562 33.285156 19.351562 C 32.773438 16.503906 33.777344 14.171875 33.777344 14.171875 C 33.382812 12.164062 36.019531 11.414062 36.019531 11.414062 L 33.574219 9.617188 C 36.640625 5.414062 35.496094 5.734375 40.121094 3.808594 L 40.636719 2.800781 L 50.238281 0.523438 C 52.371094 0.714844 53.730469 1.785156 53.730469 1.785156 L 55.40625 3.132812 L 66.84375 12.332031 C 67.957031 13.488281 68.691406 14.761719 69.121094 15.671875 C 69.484375 16.441406 69.621094 16.957031 69.621094 16.957031 Z M 67.207031 12.214844 C 67.175781 12.171875 67.132812 12.128906 67.089844 12.085938 L 67.078125 12.078125 L 56.164062 3.292969 C 56.65625 3.167969 57.136719 3.027344 57.617188 2.898438 C 58 2.792969 58.386719 2.695312 58.78125 2.621094 C 59.101562 2.546875 59.433594 2.480469 59.753906 2.460938 C 60.394531 2.417969 61.046875 2.621094 61.609375 2.921875 C 61.878906 3.058594 62.199219 3.261719 62.421875 3.464844 L 62.433594 3.476562 L 70.816406 10.246094 L 70.828125 10.246094 C 70.773438 10.367188 70.507812 10.546875 70.421875 10.601562 C 70.089844 10.804688 69.71875 10.976562 69.355469 11.125 C 68.746094 11.371094 68.082031 11.59375 67.453125 11.777344 L 67.121094 11.863281 Z M 10.835938 25.179688 L 10.539062 27.867188 L 10.503906 28.230469 C 8.328125 27.234375 6.117188 25.203125 5.570312 24.230469 C 5.558594 23.929688 5.558594 23.628906 5.558594 23.363281 C 5.582031 22.175781 5.667969 21.308594 5.742188 20.753906 C 5.859375 19.941406 6.160156 19.46875 6.757812 19.125 C 7.835938 18.515625 8.976562 17.972656 10.015625 18.816406 L 13.816406 21.917969 C 14.671875 23.074219 12.929688 23.277344 12.117188 23.503906 C 11.382812 23.695312 10.964844 24.035156 10.835938 25.179688 Z M 42.472656 52.824219 L 42.824219 41.570312 C 42.769531 47.496094 47.578125 50.554688 47.640625 50.628906 C 48.347656 51.667969 49.242188 52.542969 50.332031 53.230469 C 49.082031 53.582031 45.410156 54.824219 44.191406 54.875 C 42.566406 54.960938 42.472656 52.824219 42.472656 52.824219 Z M 70.679688 14.816406 L 69.289062 15.234375 C 68.800781 14.25 68.191406 13.316406 67.464844 12.496094 L 71.289062 11.605469 C 71.40625 12.34375 71.417969 13.125 71.4375 13.875 C 71.425781 14.023438 71.417969 14.355469 71.363281 14.472656 C 71.277344 14.632812 70.828125 14.761719 70.679688 14.816406 Z M 28.351562 14.410156 C 28.136719 15.894531 25.46875 16.761719 22.394531 16.335938 C 19.304688 15.90625 16.976562 14.34375 17.191406 12.859375 C 17.40625 11.371094 20.0625 10.503906 23.152344 10.933594 C 26.238281 11.359375 28.566406 12.910156 28.351562 14.410156 Z M 28.351562 14.410156 " fill-opacity="1" fill-rule="evenodd"/></g><path fill="#010101" d="M 63.929688 26.453125 C 63.351562 27.546875 63.074219 28.796875 63.171875 30.027344 C 63.265625 31.171875 63.671875 32.273438 64.410156 33.152344 C 64.816406 33.621094 65.296875 34.015625 65.839844 34.304688 C 66.394531 34.585938 66.996094 34.753906 67.613281 34.808594 C 68.746094 34.914062 69.890625 34.605469 70.871094 34.027344 C 71.941406 33.386719 72.792969 32.445312 73.359375 31.355469 C 73.433594 31.203125 73.5 31.066406 73.5625 30.914062 C 73.679688 31.71875 73.691406 32.542969 73.617188 33.34375 C 73.371094 36.457031 72.015625 39.546875 70.253906 42.105469 C 67.976562 45.421875 64.710938 48.332031 60.980469 49.882812 C 58.492188 50.917969 55.265625 51.519531 52.769531 50.222656 C 52.117188 49.882812 51.550781 49.433594 51.089844 48.863281 C 49.765625 47.261719 49.457031 44.980469 49.628906 42.960938 C 49.882812 39.847656 51.230469 36.765625 52.992188 34.199219 C 55.265625 30.882812 58.546875 27.984375 62.273438 26.421875 C 62.945312 26.144531 63.652344 25.898438 64.355469 25.714844 C 64.195312 25.953125 64.058594 26.199219 63.929688 26.453125 Z M 62.132812 26.101562 C 58.34375 27.683594 55.011719 30.636719 52.703125 34.007812 C 50.910156 36.605469 49.53125 39.75 49.273438 42.9375 C 49.105469 45.046875 49.4375 47.410156 50.824219 49.089844 C 51.316406 49.699219 51.914062 50.171875 52.609375 50.535156 C 55.214844 51.882812 58.523438 51.28125 61.109375 50.203125 C 64.902344 48.617188 68.234375 45.667969 70.550781 42.296875 C 72.335938 39.699219 73.710938 36.550781 73.96875 33.375 C 74.074219 32.125 74 30.785156 73.636719 29.554688 C 73.519531 30.101562 73.328125 30.65625 73.050781 31.183594 C 71.597656 33.996094 68.4375 35.257812 66.011719 33.984375 C 63.578125 32.722656 62.777344 29.429688 64.238281 26.613281 C 64.515625 26.070312 64.859375 25.585938 65.242188 25.171875 C 64.152344 25.363281 63.097656 25.695312 62.132812 26.101562 Z M 62.132812 26.101562 " fill-opacity="1" fill-rule="evenodd"/><path fill="#010101" d="M 50.492188 32.371094 C 56.035156 24.304688 65.507812 20.347656 71.652344 23.542969 C 77.804688 26.730469 78.292969 35.855469 72.75 43.933594 C 67.464844 51.644531 58.578125 55.59375 52.4375 53.15625 C 52.148438 53.035156 51.871094 52.910156 51.59375 52.769531 C 45.441406 49.570312 44.949219 40.445312 50.492188 32.371094 Z M 50.203125 32.175781 C 48.144531 35.171875 46.636719 38.722656 46.339844 42.371094 C 46.101562 45.34375 46.691406 48.457031 48.613281 50.800781 C 49.394531 51.742188 50.34375 52.511719 51.433594 53.078125 C 51.710938 53.230469 52.007812 53.359375 52.308594 53.476562 C 55.78125 54.855469 59.742188 54.160156 63.054688 52.671875 C 67.070312 50.867188 70.5625 47.753906 73.039062 44.125 C 75.101562 41.132812 76.605469 37.578125 76.90625 33.933594 C 77.152344 30.96875 76.5625 27.855469 74.628906 25.503906 C 73.863281 24.5625 72.898438 23.789062 71.8125 23.222656 C 68.351562 21.425781 64.195312 21.949219 60.714844 23.40625 C 56.484375 25.171875 52.789062 28.410156 50.203125 32.175781 Z M 50.203125 32.175781 " fill-opacity="1" fill-rule="evenodd"/><path fill="#010101" d="M 54.21875 23.597656 L 54.519531 23.425781 L 54.199219 22.816406 L 53.890625 22.976562 C 50.117188 24.933594 47.277344 28.15625 45.28125 31.867188 C 44.609375 33.128906 44.03125 34.457031 43.5625 35.8125 C 43.367188 36.347656 43.175781 36.9375 43.046875 37.492188 L 42.972656 37.824219 L 43.613281 38.007812 L 43.722656 37.6875 C 43.902344 37.128906 44.136719 36.574219 44.363281 36.039062 C 44.929688 34.703125 45.582031 33.398438 46.296875 32.132812 C 48.21875 28.808594 50.84375 25.511719 54.21875 23.597656 Z M 54.050781 23.289062 C 46.753906 27.4375 43.390625 37.578125 43.390625 37.578125 C 43.390625 37.578125 45.699219 27.632812 54.050781 23.289062 Z M 54.050781 23.289062 " fill-opacity="1" fill-rule="evenodd"/><path fill="#010101" d="M 51.089844 21.136719 C 51.402344 19.84375 52.128906 17.949219 53.300781 17.652344 L 67.089844 14.195312 C 67.21875 14.335938 67.367188 14.503906 67.453125 14.625 C 67.839844 15.136719 68.160156 15.746094 68.402344 16.34375 C 62.625 17.917969 56.859375 19.53125 51.089844 21.136719 Z M 50.621094 21.628906 C 62.574219 18.292969 68.875 16.582031 68.875 16.582031 C 68.082031 14.484375 67.1875 13.808594 67.1875 13.808594 L 53.214844 17.320312 C 51.699219 17.691406 50.878906 20.175781 50.621094 21.628906 Z M 50.621094 21.628906 " fill-opacity="1" fill-rule="evenodd"/><path fill="#010101" d="M 53.140625 16.023438 L 66.203125 12.773438 L 65.605469 12.324219 L 52.457031 15.585938 Z M 53.140625 16.023438 " fill-opacity="1" fill-rule="evenodd"/><path fill="#010101" d="M 46.464844 15.308594 C 46.703125 13.683594 44.160156 11.980469 40.804688 11.519531 C 37.441406 11.050781 34.535156 11.992188 34.300781 13.617188 C 34.078125 15.242188 36.617188 16.945312 39.972656 17.40625 C 43.335938 17.875 46.242188 16.933594 46.464844 15.308594 Z M 36.492188 12.121094 C 37.804688 11.691406 39.386719 11.679688 40.753906 11.863281 C 42.121094 12.054688 43.636719 12.496094 44.789062 13.273438 C 45.398438 13.683594 46.242188 14.429688 46.125 15.253906 C 46.007812 16.089844 44.992188 16.582031 44.289062 16.804688 C 42.964844 17.234375 41.382812 17.242188 40.027344 17.0625 C 38.660156 16.871094 37.140625 16.429688 35.988281 15.660156 C 35.378906 15.242188 34.535156 14.496094 34.652344 13.671875 C 34.769531 12.835938 35.785156 12.34375 36.492188 12.121094 Z M 36.492188 12.121094 " fill-opacity="1" fill-rule="evenodd"/><path fill="#010101" d="M 43.859375 8.996094 L 57.550781 5.371094 L 56.902344 4.8125 L 43.230469 8.558594 Z M 56.367188 5.328125 L 56.816406 5.199219 Z M 56.367188 5.328125 " fill-opacity="1" fill-rule="evenodd"/><path fill="#010101" d="M 46.058594 6.363281 L 52.703125 4.792969 L 48.238281 1.390625 L 42.023438 2.824219 Z M 46.144531 5.980469 L 42.769531 3.007812 L 48.152344 1.777344 L 51.902344 4.621094 Z M 46.144531 5.980469 " fill-opacity="1" fill-rule="evenodd"/><path fill="#010101" d="M 27.582031 14.300781 C 27.753906 13.027344 25.757812 11.691406 23.117188 11.328125 C 21.3125 11.070312 19.679688 11.339844 18.761719 11.9375 C 19.582031 11.476562 20.84375 11.253906 22.199219 11.394531 C 24.421875 11.628906 26.066406 12.75 25.863281 13.90625 C 25.671875 15.0625 23.707031 15.808594 21.484375 15.574219 C 20.949219 15.523438 20.4375 15.414062 19.988281 15.265625 C 20.695312 15.585938 21.539062 15.832031 22.46875 15.960938 C 25.105469 16.324219 27.402344 15.585938 27.582031 14.300781 Z M 26.238281 13.640625 C 26.207031 13.167969 25.96875 12.761719 25.648438 12.441406 C 25.84375 12.535156 26.035156 12.644531 26.214844 12.761719 C 26.664062 13.070312 27.316406 13.636719 27.230469 14.257812 C 27.144531 14.878906 26.355469 15.242188 25.84375 15.414062 C 25.351562 15.574219 24.804688 15.660156 24.273438 15.691406 C 24.367188 15.660156 24.464844 15.628906 24.5625 15.585938 C 25.285156 15.316406 26.066406 14.792969 26.214844 13.96875 C 26.226562 13.863281 26.238281 13.746094 26.238281 13.640625 Z M 26.238281 13.640625 " fill-opacity="1" fill-rule="evenodd"/><path fill="#010101" d="M 27.777344 24.113281 C 25.371094 24.816406 20.714844 26.347656 18.898438 26.421875 C 15.683594 26.5625 13.367188 24.839844 13.367188 24.839844 C 15.558594 26.464844 18.132812 26.636719 18.910156 26.648438 C 20.074219 26.667969 25.789062 25.105469 27.902344 24.433594 C 29.003906 23.960938 28.695312 24.121094 29.503906 23.320312 C 29.761719 23.074219 30.007812 22.890625 30.199219 22.773438 C 31.128906 22.1875 33.222656 21.714844 34.386719 21.339844 C 33.671875 21.523438 31.695312 21.886719 30.457031 22.347656 C 29.109375 22.847656 29.226562 23.683594 27.777344 24.113281 Z M 27.777344 24.113281 " fill-opacity="1" fill-rule="evenodd"/><g fill="#000000" fill-opacity="1"><g transform="translate(4.025735, 43.837218)"><g><path d="M 3.4375 -6.546875 L 6.03125 -6.546875 L 6.03125 -2.8125 C 6.03125 -1.863281 5.796875 -1.132812 5.328125 -0.625 C 4.859375 -0.113281 4.171875 0.140625 3.265625 0.140625 C 2.359375 0.140625 1.671875 -0.113281 1.203125 -0.625 C 0.742188 -1.132812 0.515625 -1.863281 0.515625 -2.8125 L 0.515625 -8.921875 C 0.515625 -9.878906 0.742188 -10.609375 1.203125 -11.109375 C 1.671875 -11.617188 2.359375 -11.875 3.265625 -11.875 C 4.171875 -11.875 4.859375 -11.617188 5.328125 -11.109375 C 5.796875 -10.609375 6.03125 -9.878906 6.03125 -8.921875 L 6.03125 -7.78125 L 4.28125 -7.78125 L 4.28125 -9.046875 C 4.28125 -9.472656 4.191406 -9.769531 4.015625 -9.9375 C 3.847656 -10.113281 3.617188 -10.203125 3.328125 -10.203125 C 3.035156 -10.203125 2.800781 -10.113281 2.625 -9.9375 C 2.445312 -9.769531 2.359375 -9.472656 2.359375 -9.046875 L 2.359375 -2.703125 C 2.359375 -2.273438 2.445312 -1.976562 2.625 -1.8125 C 2.800781 -1.644531 3.035156 -1.5625 3.328125 -1.5625 C 3.617188 -1.5625 3.847656 -1.644531 4.015625 -1.8125 C 4.191406 -1.976562 4.28125 -2.273438 4.28125 -2.703125 L 4.28125 -4.859375 L 3.4375 -4.859375 Z M 3.4375 -6.546875 "/></g></g></g><g fill="#000000" fill-opacity="1"><g transform="translate(11.355535, 43.837218)"><g><path d="M 6.640625 0 L 4.78125 0 L 4.46875 -2.125 L 2.203125 -2.125 L 1.875 0 L 0.1875 0 L 2.0625 -11.75 L 4.765625 -11.75 Z M 2.4375 -3.71875 L 4.21875 -3.71875 L 3.328125 -9.671875 Z M 2.4375 -3.71875 "/></g></g></g><g fill="#000000" fill-opacity="1"><g transform="translate(18.970475, 43.837218)"><g><path d="M 0.671875 -11.75 L 2.515625 -11.75 L 2.515625 -1.671875 L 5.546875 -1.671875 L 5.546875 0 L 0.671875 0 Z M 0.671875 -11.75 "/></g></g></g><g fill="#000000" fill-opacity="1"><g transform="translate(25.478407, 43.837218)"><g><path d="M 0.671875 -11.75 L 2.515625 -11.75 L 2.515625 -1.671875 L 5.546875 -1.671875 L 5.546875 0 L 0.671875 0 Z M 0.671875 -11.75 "/></g></g></g><g fill="#000000" fill-opacity="1"><g transform="translate(31.986341, 43.837218)"><g><path d="M 2.515625 -6.796875 L 5.046875 -6.796875 L 5.046875 -5.125 L 2.515625 -5.125 L 2.515625 -1.671875 L 5.703125 -1.671875 L 5.703125 0 L 0.671875 0 L 0.671875 -11.75 L 5.703125 -11.75 L 5.703125 -10.0625 L 2.515625 -10.0625 Z M 2.515625 -6.796875 "/></g></g></g><g fill="#000000" fill-opacity="1"><g transform="translate(38.947144, 43.837218)"><g><path d="M 4.53125 0 C 4.507812 -0.0820312 4.488281 -0.15625 4.46875 -0.21875 C 4.445312 -0.28125 4.425781 -0.363281 4.40625 -0.46875 C 4.382812 -0.570312 4.367188 -0.703125 4.359375 -0.859375 C 4.359375 -1.015625 4.359375 -1.207031 4.359375 -1.4375 L 4.359375 -3.296875 C 4.359375 -3.835938 4.265625 -4.21875 4.078125 -4.4375 C 3.890625 -4.664062 3.582031 -4.78125 3.15625 -4.78125 L 2.515625 -4.78125 L 2.515625 0 L 0.671875 0 L 0.671875 -11.75 L 3.453125 -11.75 C 4.421875 -11.75 5.117188 -11.523438 5.546875 -11.078125 C 5.972656 -10.628906 6.1875 -9.953125 6.1875 -9.046875 L 6.1875 -8.125 C 6.1875 -6.914062 5.785156 -6.117188 4.984375 -5.734375 C 5.453125 -5.546875 5.769531 -5.234375 5.9375 -4.796875 C 6.113281 -4.367188 6.203125 -3.847656 6.203125 -3.234375 L 6.203125 -1.421875 C 6.203125 -1.128906 6.210938 -0.875 6.234375 -0.65625 C 6.265625 -0.4375 6.320312 -0.21875 6.40625 0 Z M 2.515625 -10.0625 L 2.515625 -6.453125 L 3.234375 -6.453125 C 3.585938 -6.453125 3.859375 -6.539062 4.046875 -6.71875 C 4.242188 -6.90625 4.34375 -7.234375 4.34375 -7.703125 L 4.34375 -8.859375 C 4.34375 -9.285156 4.265625 -9.59375 4.109375 -9.78125 C 3.960938 -9.96875 3.726562 -10.0625 3.40625 -10.0625 Z M 2.515625 -10.0625 "/></g></g></g><g fill="#000000" fill-opacity="1"><g transform="translate(46.478219, 43.837218)"><g><path d="M 2.40625 -3.890625 L 0.0625 -11.75 L 2 -11.75 L 3.40625 -6.390625 L 4.8125 -11.75 L 6.578125 -11.75 L 4.25 -3.890625 L 4.25 0 L 2.40625 0 Z M 2.40625 -3.890625 "/></g></g></g><g fill="#000000" fill-opacity="1"><g transform="translate(53.90866, 43.837218)"><g/></g></g><g fill="#000000" fill-opacity="1"><g transform="translate(57.296846, 43.837218)"><g><path d="M 2.359375 -2.703125 C 2.359375 -2.273438 2.445312 -1.972656 2.625 -1.796875 C 2.800781 -1.628906 3.035156 -1.546875 3.328125 -1.546875 C 3.617188 -1.546875 3.847656 -1.628906 4.015625 -1.796875 C 4.191406 -1.972656 4.28125 -2.273438 4.28125 -2.703125 L 4.28125 -9.046875 C 4.28125 -9.472656 4.191406 -9.769531 4.015625 -9.9375 C 3.847656 -10.113281 3.617188 -10.203125 3.328125 -10.203125 C 3.035156 -10.203125 2.800781 -10.113281 2.625 -9.9375 C 2.445312 -9.769531 2.359375 -9.472656 2.359375 -9.046875 Z M 0.515625 -8.921875 C 0.515625 -9.878906 0.753906 -10.609375 1.234375 -11.109375 C 1.722656 -11.617188 2.421875 -11.875 3.328125 -11.875 C 4.234375 -11.875 4.925781 -11.617188 5.40625 -11.109375 C 5.882812 -10.609375 6.125 -9.878906 6.125 -8.921875 L 6.125 -2.8125 C 6.125 -1.863281 5.882812 -1.132812 5.40625 -0.625 C 4.925781 -0.113281 4.234375 0.140625 3.328125 0.140625 C 2.421875 0.140625 1.722656 -0.113281 1.234375 -0.625 C 0.753906 -1.132812 0.515625 -1.863281 0.515625 -2.8125 Z M 0.515625 -8.921875 "/></g></g></g><g fill="#000000" fill-opacity="1"><g transform="translate(64.727287, 43.837218)"><g><path d="M 2.515625 -6.53125 L 4.90625 -6.53125 L 4.90625 -4.84375 L 2.515625 -4.84375 L 2.515625 0 L 0.671875 0 L 0.671875 -11.75 L 5.546875 -11.75 L 5.546875 -10.0625 L 2.515625 -10.0625 Z M 2.515625 -6.53125 "/></g></g></g><g fill="#000000" fill-opacity="1"><g transform="translate(71.285541, 43.837218)"><g/></g></g><g fill="#000000" fill-opacity="1"><g transform="translate(74.673728, 43.837218)"><g><path d="M 0.171875 -1.671875 C 0.265625 -1.660156 0.367188 -1.65625 0.484375 -1.65625 C 0.597656 -1.65625 0.707031 -1.65625 0.8125 -1.65625 C 1.09375 -1.65625 1.335938 -1.726562 1.546875 -1.875 C 1.753906 -2.019531 1.859375 -2.320312 1.859375 -2.78125 L 1.859375 -11.75 L 3.703125 -11.75 L 3.703125 -2.921875 C 3.703125 -2.328125 3.628906 -1.835938 3.484375 -1.453125 C 3.335938 -1.078125 3.140625 -0.78125 2.890625 -0.5625 C 2.648438 -0.34375 2.367188 -0.1875 2.046875 -0.09375 C 1.734375 -0.0078125 1.40625 0.03125 1.0625 0.03125 C 0.894531 0.03125 0.742188 0.03125 0.609375 0.03125 C 0.472656 0.03125 0.328125 0.0195312 0.171875 0 Z M 0.171875 -1.671875 "/></g></g></g><g fill="#000000" fill-opacity="1"><g transform="translate(79.755972, 43.837218)"><g><path d="M 2.359375 -2.703125 C 2.359375 -2.273438 2.445312 -1.972656 2.625 -1.796875 C 2.800781 -1.628906 3.035156 -1.546875 3.328125 -1.546875 C 3.617188 -1.546875 3.847656 -1.628906 4.015625 -1.796875 C 4.191406 -1.972656 4.28125 -2.273438 4.28125 -2.703125 L 4.28125 -9.046875 C 4.28125 -9.472656 4.191406 -9.769531 4.015625 -9.9375 C 3.847656 -10.113281 3.617188 -10.203125 3.328125 -10.203125 C 3.035156 -10.203125 2.800781 -10.113281 2.625 -9.9375 C 2.445312 -9.769531 2.359375 -9.472656 2.359375 -9.046875 Z M 0.515625 -8.921875 C 0.515625 -9.878906 0.753906 -10.609375 1.234375 -11.109375 C 1.722656 -11.617188 2.421875 -11.875 3.328125 -11.875 C 4.234375 -11.875 4.925781 -11.617188 5.40625 -11.109375 C 5.882812 -10.609375 6.125 -9.878906 6.125 -8.921875 L 6.125 -2.8125 C 6.125 -1.863281 5.882812 -1.132812 5.40625 -0.625 C 4.925781 -0.113281 4.234375 0.140625 3.328125 0.140625 C 2.421875 0.140625 1.722656 -0.113281 1.234375 -0.625 C 0.753906 -1.132812 0.515625 -1.863281 0.515625 -2.8125 Z M 0.515625 -8.921875 "/></g></g></g><g fill="#000000" fill-opacity="1"><g transform="translate(87.186408, 43.837218)"><g><path d="M 2.4375 -11.75 L 2.4375 -2.6875 C 2.4375 -2.257812 2.519531 -1.960938 2.6875 -1.796875 C 2.863281 -1.628906 3.097656 -1.546875 3.390625 -1.546875 C 3.679688 -1.546875 3.910156 -1.628906 4.078125 -1.796875 C 4.253906 -1.960938 4.34375 -2.257812 4.34375 -2.6875 L 4.34375 -11.75 L 6.09375 -11.75 L 6.09375 -2.796875 C 6.09375 -1.847656 5.859375 -1.117188 5.390625 -0.609375 C 4.929688 -0.0976562 4.25 0.15625 3.34375 0.15625 C 2.4375 0.15625 1.75 -0.0976562 1.28125 -0.609375 C 0.820312 -1.117188 0.59375 -1.847656 0.59375 -2.796875 L 0.59375 -11.75 Z M 2.4375 -11.75 "/></g></g></g><g fill="#000000" fill-opacity="1"><g transform="translate(94.650395, 43.837218)"><g><path d="M 4.53125 0 C 4.507812 -0.0820312 4.488281 -0.15625 4.46875 -0.21875 C 4.445312 -0.28125 4.425781 -0.363281 4.40625 -0.46875 C 4.382812 -0.570312 4.367188 -0.703125 4.359375 -0.859375 C 4.359375 -1.015625 4.359375 -1.207031 4.359375 -1.4375 L 4.359375 -3.296875 C 4.359375 -3.835938 4.265625 -4.21875 4.078125 -4.4375 C 3.890625 -4.664062 3.582031 -4.78125 3.15625 -4.78125 L 2.515625 -4.78125 L 2.515625 0 L 0.671875 0 L 0.671875 -11.75 L 3.453125 -11.75 C 4.421875 -11.75 5.117188 -11.523438 5.546875 -11.078125 C 5.972656 -10.628906 6.1875 -9.953125 6.1875 -9.046875 L 6.1875 -8.125 C 6.1875 -6.914062 5.785156 -6.117188 4.984375 -5.734375 C 5.453125 -5.546875 5.769531 -5.234375 5.9375 -4.796875 C 6.113281 -4.367188 6.203125 -3.847656 6.203125 -3.234375 L 6.203125 -1.421875 C 6.203125 -1.128906 6.210938 -0.875 6.234375 -0.65625 C 6.265625 -0.4375 6.320312 -0.21875 6.40625 0 Z M 2.515625 -10.0625 L 2.515625 -6.453125 L 3.234375 -6.453125 C 3.585938 -6.453125 3.859375 -6.539062 4.046875 -6.71875 C 4.242188 -6.90625 4.34375 -7.234375 4.34375 -7.703125 L 4.34375 -8.859375 C 4.34375 -9.285156 4.265625 -9.59375 4.109375 -9.78125 C 3.960938 -9.96875 3.726562 -10.0625 3.40625 -10.0625 Z M 2.515625 -10.0625 "/></g></g></g><g fill="#000000" fill-opacity="1"><g transform="translate(102.181465, 43.837218)"><g><path d="M 2.3125 -8.515625 L 2.3125 0 L 0.65625 0 L 0.65625 -11.75 L 2.96875 -11.75 L 4.859375 -4.71875 L 4.859375 -11.75 L 6.515625 -11.75 L 6.515625 0 L 4.609375 0 Z M 2.3125 -8.515625 "/></g></g></g><g fill="#000000" fill-opacity="1"><g transform="translate(110.131862, 43.837218)"><g><path d="M 2.515625 -6.796875 L 5.046875 -6.796875 L 5.046875 -5.125 L 2.515625 -5.125 L 2.515625 -1.671875 L 5.703125 -1.671875 L 5.703125 0 L 0.671875 0 L 0.671875 -11.75 L 5.703125 -11.75 L 5.703125 -10.0625 L 2.515625 -10.0625 Z M 2.515625 -6.796875 "/></g></g></g><g fill="#000000" fill-opacity="1"><g transform="translate(117.09266, 43.837218)"><g><path d="M 2.40625 -3.890625 L 0.0625 -11.75 L 2 -11.75 L 3.40625 -6.390625 L 4.8125 -11.75 L 6.578125 -11.75 L 4.25 -3.890625 L 4.25 0 L 2.40625 0 Z M 2.40625 -3.890625 "/></g></g></g><g fill="#000000" fill-opacity="1"><g transform="translate(124.523101, 43.837218)"><g><path d="M 0.4375 -8.921875 C 0.4375 -9.878906 0.660156 -10.609375 1.109375 -11.109375 C 1.566406 -11.617188 2.25 -11.875 3.15625 -11.875 C 4.0625 -11.875 4.738281 -11.617188 5.1875 -11.109375 C 5.644531 -10.609375 5.875 -9.878906 5.875 -8.921875 L 5.875 -8.46875 L 4.125 -8.46875 L 4.125 -9.046875 C 4.125 -9.472656 4.039062 -9.769531 3.875 -9.9375 C 3.71875 -10.113281 3.492188 -10.203125 3.203125 -10.203125 C 2.910156 -10.203125 2.679688 -10.113281 2.515625 -9.9375 C 2.359375 -9.769531 2.28125 -9.472656 2.28125 -9.046875 C 2.28125 -8.640625 2.367188 -8.28125 2.546875 -7.96875 C 2.722656 -7.664062 2.945312 -7.378906 3.21875 -7.109375 C 3.488281 -6.835938 3.773438 -6.5625 4.078125 -6.28125 C 4.390625 -6.007812 4.679688 -5.710938 4.953125 -5.390625 C 5.222656 -5.066406 5.445312 -4.695312 5.625 -4.28125 C 5.800781 -3.863281 5.890625 -3.375 5.890625 -2.8125 C 5.890625 -1.863281 5.65625 -1.132812 5.1875 -0.625 C 4.726562 -0.113281 4.046875 0.140625 3.140625 0.140625 C 2.234375 0.140625 1.546875 -0.113281 1.078125 -0.625 C 0.617188 -1.132812 0.390625 -1.863281 0.390625 -2.8125 L 0.390625 -3.625 L 2.125 -3.625 L 2.125 -2.703125 C 2.125 -2.273438 2.210938 -1.976562 2.390625 -1.8125 C 2.566406 -1.644531 2.800781 -1.5625 3.09375 -1.5625 C 3.382812 -1.5625 3.613281 -1.644531 3.78125 -1.8125 C 3.957031 -1.976562 4.046875 -2.273438 4.046875 -2.703125 C 4.046875 -3.109375 3.953125 -3.460938 3.765625 -3.765625 C 3.585938 -4.078125 3.363281 -4.367188 3.09375 -4.640625 C 2.832031 -4.910156 2.546875 -5.179688 2.234375 -5.453125 C 1.929688 -5.734375 1.644531 -6.035156 1.375 -6.359375 C 1.101562 -6.679688 0.878906 -7.050781 0.703125 -7.46875 C 0.523438 -7.882812 0.4375 -8.367188 0.4375 -8.921875 Z M 0.4375 -8.921875 "/></g></g></g></svg>