<svg xmlns="http://www.w3.org/2000/svg" xmlns:xlink="http://www.w3.org/1999/xlink" width="1280" zoomAndPan="magnify" viewBox="0 0 960 599.999999" height="800" preserveAspectRatio="xMidYMid meet" version="1.0"><defs><g/><clipPath id="819d7d6835"><path d="M 45.722656 51.351562 L 120 51.351562 L 120 111.902344 L 45.722656 111.902344 Z M 45.722656 51.351562 " clip-rule="nonzero"/></clipPath></defs><rect x="-96" width="1152" fill="#ffffff" y="-60" height="719.999999" fill-opacity="1"/><rect x="-96" width="1152" fill="#ffffff" y="-60" height="719.999999" fill-opacity="1"/><path fill="#010101" d="M 59.351562 108.035156 L 60.121094 85.5625 C 59.898438 91.953125 59.296875 96.710938 58.738281 99.902344 C 58.140625 103.351562 58.523438 106.101562 54.085938 104.402344 C 51.875 103.554688 49.023438 101.695312 46.4375 99.246094 C 49.570312 102.457031 53.3125 105.636719 55.566406 107.164062 C 56.949219 108.097656 57.644531 108.386719 59.351562 108.035156 Z M 59.316406 98.527344 L 59.007812 107.742188 C 57.613281 107.992188 57.003906 107.710938 55.769531 106.875 C 55.222656 106.507812 54.695312 106.121094 54.179688 105.722656 C 53.546875 105.230469 52.925781 104.726562 52.316406 104.210938 C 52.058594 103.996094 51.800781 103.78125 51.542969 103.554688 C 52.324219 104.003906 53.140625 104.414062 53.957031 104.734375 C 55.050781 105.144531 56.691406 105.660156 57.699219 104.8125 C 58.277344 104.316406 58.515625 103.488281 58.652344 102.769531 C 58.738281 102.328125 58.804688 101.878906 58.859375 101.4375 C 58.933594 100.945312 58.996094 100.449219 59.082031 99.957031 C 59.167969 99.484375 59.242188 99 59.316406 98.527344 Z M 59.316406 98.527344 " fill-opacity="1" fill-rule="evenodd"/><g clip-path="url(#819d7d6835)"><path fill="#010101" d="M 79.375 87.722656 L 78.515625 98.976562 C 78.429688 100.019531 78.332031 101.921875 79.160156 102.621094 L 73.851562 104.21875 C 71.5 104.917969 70.78125 106.605469 66.984375 107.679688 L 61.730469 109.410156 C 59.359375 110.191406 56.777344 110.0625 54.695312 108.527344 C 52.070312 106.59375 47.648438 102.136719 45.859375 100.492188 L 51.253906 105.832031 C 53.355469 107.894531 57.109375 111.910156 60.453125 111.535156 C 61.507812 111.40625 67.265625 109.914062 69.183594 109.195312 C 70.523438 108.6875 71.726562 107.152344 73.679688 106.421875 C 76.058594 105.519531 79.425781 104.886719 81.496094 104.339844 L 84.167969 106.410156 C 84.820312 106.917969 85.613281 107.195312 86.417969 107.078125 C 88.039062 106.851562 90.921875 105.90625 93.261719 105.175781 L 93.292969 105.1875 C 99.824219 108.582031 109.894531 104.382812 115.78125 95.800781 C 121.328125 87.734375 121.1875 78.667969 115.707031 74.800781 L 114.324219 72.40625 L 114.507812 65.660156 L 114.25 65.378906 C 114.195312 66.101562 114.175781 66.347656 113.175781 66.617188 L 111.707031 67.003906 L 111.761719 66.980469 L 113.144531 66.5625 C 114.175781 66.25 114.097656 66.035156 114.164062 65.285156 C 114.140625 64.683594 114.132812 63.511719 113.949219 62.578125 L 109.90625 63.511719 C 109.90625 63.511719 114.078125 62.339844 113.507812 61.460938 C 113.476562 61.417969 113.445312 61.394531 113.414062 61.363281 L 104.992188 54.574219 C 104.992188 54.574219 103.621094 53.359375 102.042969 53.480469 C 101.078125 53.542969 99.492188 54.015625 98.332031 54.339844 L 96.351562 52.738281 C 96.058594 52.5 95.640625 52.277344 95.300781 52.113281 C 94.441406 51.695312 93.507812 51.449219 92.5625 51.363281 L 92.476562 51.351562 L 92.390625 51.375 L 82.761719 53.660156 L 82.535156 53.714844 L 82.417969 53.929688 L 81.988281 54.769531 C 81.207031 55.101562 80.402344 55.421875 79.640625 55.808594 C 79.125 56.078125 78.632812 56.367188 78.214844 56.785156 C 77.765625 57.207031 77.421875 57.722656 77.078125 58.226562 C 76.507812 59.0625 75.960938 59.890625 75.363281 60.695312 L 75.0625 61.117188 L 75.082031 61.136719 L 67.832031 62.449219 C 65.890625 62.007812 63.394531 61.511719 61.226562 62.234375 C 60.15625 62.585938 59.019531 63.273438 58.707031 64.617188 L 48.734375 67.109375 C 47.316406 67.613281 46.769531 68.828125 46.375 70.148438 C 45.878906 71.804688 45.816406 72.8125 45.816406 72.8125 C 46.394531 73.46875 46.964844 74.070312 47.5 74.636719 C 47.488281 74.980469 47.488281 75.335938 47.5 75.691406 L 47.5 75.734375 L 47.519531 75.765625 C 47.660156 76.015625 47.84375 76.25 48.027344 76.464844 C 48.28125 76.753906 48.550781 77.023438 48.828125 77.292969 C 49.515625 77.925781 50.265625 78.515625 51.050781 79.019531 C 51.523438 79.332031 52.027344 79.613281 52.550781 79.859375 L 52.765625 79.957031 L 52.789062 79.71875 L 52.820312 79.449219 C 53.28125 79.792969 53.6875 80.074219 54.03125 80.300781 C 56.058594 81.664062 58.386719 82.585938 60.796875 82.46875 C 62.03125 82.40625 63.628906 81.976562 65.28125 81.4375 C 66.964844 80.890625 68.820312 80.257812 70.460938 79.613281 C 70.730469 79.503906 70.707031 79.441406 71.179688 78.933594 C 72.832031 77.171875 75.339844 77.042969 77.570312 76.539062 C 77.882812 80.179688 75.953125 86.023438 79.375 87.722656 Z M 78.859375 99 L 79.738281 87.515625 L 79.523438 87.410156 C 79.125 87.207031 78.78125 86.9375 78.515625 86.570312 C 77.980469 85.875 77.773438 84.949219 77.699219 84.089844 C 77.601562 83.015625 77.679688 81.898438 77.753906 80.835938 C 77.816406 80.085938 77.882812 79.34375 77.925781 78.589844 C 77.957031 77.902344 77.980469 77.207031 77.914062 76.519531 L 77.882812 76.109375 L 77.484375 76.195312 C 75.179688 76.722656 72.648438 76.851562 70.921875 78.699219 C 70.792969 78.828125 70.675781 78.96875 70.558594 79.105469 C 70.527344 79.140625 70.472656 79.203125 70.429688 79.234375 C 70.40625 79.257812 70.363281 79.269531 70.332031 79.277344 C 68.636719 79.957031 66.902344 80.535156 65.175781 81.09375 C 64.390625 81.351562 63.597656 81.597656 62.804688 81.78125 C 62.148438 81.941406 61.453125 82.082031 60.777344 82.113281 C 60.21875 82.136719 59.660156 82.113281 59.113281 82.027344 C 57.355469 81.769531 55.695312 80.988281 54.222656 80.007812 C 53.816406 79.742188 53.421875 79.460938 53.035156 79.171875 L 53.3125 76.667969 C 53.355469 76.28125 53.441406 75.796875 53.761719 75.539062 C 53.925781 75.410156 54.136719 75.335938 54.34375 75.28125 C 54.996094 75.101562 56.175781 74.960938 56.464844 74.253906 C 56.636719 73.855469 56.464844 73.46875 56.230469 73.144531 L 56.207031 73.113281 L 52.359375 69.976562 C 51.15625 69 49.859375 69.589844 48.691406 70.257812 C 47.929688 70.675781 47.617188 71.289062 47.5 72.136719 C 47.414062 72.738281 47.359375 73.351562 47.339844 73.949219 C 46.941406 73.53125 46.554688 73.113281 46.179688 72.683594 C 46.203125 72.511719 46.222656 72.328125 46.253906 72.15625 C 46.363281 71.511719 46.523438 70.867188 46.707031 70.246094 C 47.082031 69.03125 47.554688 67.902344 48.839844 67.441406 L 58.996094 64.90625 L 59.019531 64.84375 C 59.1875 65.625 59.863281 66.269531 60.519531 66.699219 C 61.667969 67.472656 63.15625 67.914062 64.507812 68.097656 C 65.871094 68.289062 67.425781 68.269531 68.746094 67.839844 C 69.667969 67.539062 70.738281 66.9375 70.890625 65.863281 C 71.039062 64.800781 70.183594 63.917969 69.367188 63.382812 C 69.003906 63.132812 68.605469 62.917969 68.1875 62.746094 L 75.695312 61.382812 L 77.515625 62.714844 C 77.238281 62.84375 76.980469 62.996094 76.753906 63.15625 C 75.960938 63.734375 75.480469 64.550781 75.628906 65.550781 C 75.585938 65.660156 75.542969 65.777344 75.5 65.894531 C 75.382812 66.269531 75.285156 66.667969 75.199219 67.054688 C 74.964844 68.300781 74.933594 69.589844 75.15625 70.847656 L 75.179688 70.984375 L 75.296875 71.070312 C 75.652344 71.320312 76.058594 71.554688 76.433594 71.75 C 77.367188 72.253906 78.375 72.660156 79.394531 72.953125 C 82.535156 73.875 85.765625 73.746094 88.777344 72.402344 C 89.078125 72.800781 89.539062 73.210938 89.9375 73.488281 C 90.867188 74.132812 91.953125 74.433594 93.078125 74.164062 L 93.089844 74.164062 L 112.425781 68.625 L 112.328125 68.28125 C 112.230469 67.957031 112.101562 67.625 111.964844 67.300781 L 113.273438 66.957031 C 113.5625 66.871094 113.882812 66.777344 114.128906 66.59375 L 113.96875 72.5 L 115.4375 75.035156 L 115.503906 75.089844 C 116.144531 75.542969 116.726562 76.078125 117.21875 76.679688 C 119.148438 79.03125 119.71875 82.15625 119.472656 85.113281 C 119.171875 88.859375 117.605469 92.523438 115.492188 95.605469 C 112.832031 99.484375 109.015625 102.835938 104.648438 104.660156 C 102.871094 105.402344 100.960938 105.894531 99.03125 105.992188 C 97.304688 106.078125 95.566406 105.832031 93.96875 105.121094 C 93.796875 105.046875 93.625 104.960938 93.453125 104.875 L 93.433594 104.863281 L 93.292969 104.789062 L 93.28125 104.800781 L 92.808594 104.5 C 91.769531 103.855469 90.890625 103.007812 90.203125 101.996094 C 90.191406 101.984375 90.191406 101.976562 90.183594 101.964844 C 90.128906 101.898438 89.96875 101.792969 89.894531 101.738281 C 89.710938 101.597656 89.527344 101.460938 89.355469 101.308594 C 88.757812 100.804688 88.210938 100.234375 87.726562 99.621094 C 86.226562 97.742188 85.410156 95.519531 85.429688 93.101562 L 85.429688 92.75 L 84.734375 92.738281 L 84.371094 104.390625 L 84.371094 104.414062 C 84.390625 104.789062 84.5 105.25 84.660156 105.605469 C 84.90625 106.175781 85.3125 106.582031 85.859375 106.746094 C 85.324219 106.691406 84.808594 106.453125 84.378906 106.132812 L 81.582031 103.953125 L 81.410156 103.996094 C 80.710938 104.175781 80.015625 104.339844 79.320312 104.5 C 78.515625 104.691406 77.699219 104.875 76.894531 105.089844 C 75.769531 105.371094 74.640625 105.679688 73.558594 106.089844 C 72.59375 106.445312 71.800781 106.992188 70.984375 107.613281 C 70.417969 108.042969 69.730469 108.601562 69.054688 108.859375 C 68.496094 109.074219 67.90625 109.257812 67.328125 109.429688 C 66.566406 109.65625 65.796875 109.871094 65.023438 110.085938 C 64.066406 110.34375 63.113281 110.589844 62.160156 110.816406 C 61.792969 110.902344 61.441406 110.988281 61.078125 111.0625 C 60.863281 111.105469 60.636719 111.160156 60.421875 111.179688 C 58.972656 111.34375 57.460938 110.601562 56.195312 109.753906 C 57.988281 110.429688 59.972656 110.363281 61.835938 109.742188 L 67.082031 108.023438 C 68.230469 107.691406 69.292969 107.261719 70.308594 106.648438 C 70.683594 106.421875 71.050781 106.175781 71.414062 105.929688 C 71.734375 105.703125 72.046875 105.488281 72.378906 105.285156 C 72.882812 104.972656 73.378906 104.726562 73.945312 104.554688 L 79.886719 102.769531 L 79.382812 102.351562 C 78.675781 101.761719 78.792969 99.835938 78.859375 99 Z M 111.984375 68.375 L 92.992188 73.824219 C 90.65625 74.371094 89.023438 72.15625 89.023438 72.15625 C 89.980469 68.667969 89.378906 66.570312 89.378906 66.570312 C 89.882812 69.148438 88.714844 72.050781 88.714844 72.050781 C 81.679688 75.230469 75.5 70.78125 75.5 70.78125 C 74.988281 67.925781 75.996094 65.582031 75.996094 65.582031 C 75.597656 63.5625 78.246094 62.8125 78.246094 62.8125 L 75.792969 61.007812 C 78.867188 56.785156 77.722656 57.109375 82.363281 55.175781 L 82.878906 54.164062 L 92.519531 51.878906 C 94.667969 52.070312 96.027344 53.144531 96.027344 53.144531 L 97.710938 54.5 L 109.199219 63.734375 C 110.3125 64.894531 111.054688 66.175781 111.480469 67.085938 C 111.847656 67.859375 111.984375 68.375 111.984375 68.375 Z M 109.5625 63.617188 C 109.53125 63.574219 109.488281 63.53125 109.445312 63.488281 L 109.433594 63.480469 L 98.472656 54.660156 C 98.964844 54.53125 99.449219 54.390625 99.929688 54.261719 C 100.316406 54.15625 100.703125 54.058594 101.101562 53.984375 C 101.421875 53.910156 101.753906 53.84375 102.078125 53.820312 C 102.71875 53.777344 103.375 53.984375 103.941406 54.285156 C 104.210938 54.421875 104.53125 54.628906 104.757812 54.832031 L 104.769531 54.84375 L 113.1875 61.640625 L 113.199219 61.640625 C 113.144531 61.761719 112.875 61.941406 112.789062 61.996094 C 112.457031 62.199219 112.082031 62.371094 111.71875 62.523438 C 111.105469 62.769531 110.441406 62.996094 109.808594 63.179688 L 109.476562 63.265625 Z M 52.957031 76.636719 L 52.660156 79.332031 L 52.625 79.699219 C 50.4375 78.699219 48.21875 76.660156 47.671875 75.679688 C 47.660156 75.378906 47.660156 75.078125 47.660156 74.8125 C 47.683594 73.617188 47.769531 72.75 47.84375 72.191406 C 47.960938 71.375 48.261719 70.902344 48.863281 70.558594 C 49.945312 69.945312 51.09375 69.398438 52.132812 70.246094 L 55.953125 73.359375 C 56.808594 74.519531 55.0625 74.726562 54.246094 74.949219 C 53.503906 75.144531 53.085938 75.488281 52.957031 76.636719 Z M 84.722656 104.390625 L 85.078125 93.09375 C 85.023438 99.042969 89.851562 102.113281 89.914062 102.191406 C 90.621094 103.230469 91.523438 104.113281 92.617188 104.800781 C 91.363281 105.15625 87.675781 106.402344 86.449219 106.453125 C 84.820312 106.539062 84.722656 104.390625 84.722656 104.390625 Z M 113.046875 66.226562 L 111.652344 66.648438 C 111.160156 65.660156 110.550781 64.726562 109.820312 63.898438 L 113.660156 63.007812 C 113.777344 63.746094 113.789062 64.53125 113.808594 65.285156 C 113.800781 65.433594 113.789062 65.765625 113.734375 65.886719 C 113.648438 66.046875 113.199219 66.175781 113.046875 66.226562 Z M 70.546875 65.820312 C 70.332031 67.3125 67.652344 68.183594 64.5625 67.753906 C 61.464844 67.324219 59.125 65.753906 59.339844 64.261719 C 59.554688 62.769531 62.222656 61.898438 65.324219 62.328125 C 68.421875 62.757812 70.761719 64.316406 70.546875 65.820312 Z M 70.546875 65.820312 " fill-opacity="1" fill-rule="evenodd"/></g><path fill="#010101" d="M 106.269531 77.914062 C 105.691406 79.011719 105.410156 80.265625 105.507812 81.503906 C 105.605469 82.652344 106.011719 83.757812 106.753906 84.640625 C 107.160156 85.113281 107.640625 85.507812 108.191406 85.800781 C 108.746094 86.078125 109.347656 86.25 109.96875 86.304688 C 111.105469 86.410156 112.253906 86.101562 113.242188 85.519531 C 114.3125 84.875 115.171875 83.929688 115.738281 82.835938 C 115.816406 82.683594 115.878906 82.542969 115.945312 82.394531 C 116.0625 83.199219 116.074219 84.027344 115.996094 84.832031 C 115.75 87.957031 114.386719 91.0625 112.617188 93.628906 C 110.335938 96.960938 107.054688 99.878906 103.308594 101.4375 C 100.8125 102.480469 97.574219 103.082031 95.0625 101.78125 C 94.410156 101.4375 93.839844 100.988281 93.378906 100.417969 C 92.050781 98.808594 91.738281 96.519531 91.910156 94.488281 C 92.167969 91.363281 93.519531 88.269531 95.289062 85.691406 C 97.574219 82.363281 100.863281 79.449219 104.609375 77.882812 C 105.285156 77.605469 105.992188 77.355469 106.699219 77.175781 C 106.539062 77.410156 106.398438 77.65625 106.269531 77.914062 Z M 104.46875 77.558594 C 100.660156 79.148438 97.316406 82.113281 95 85.5 C 93.195312 88.109375 91.8125 91.265625 91.554688 94.46875 C 91.382812 96.582031 91.71875 98.957031 93.109375 100.644531 C 93.605469 101.257812 94.203125 101.726562 94.902344 102.09375 C 97.519531 103.445312 100.84375 102.84375 103.4375 101.761719 C 107.246094 100.171875 110.59375 97.207031 112.917969 93.824219 C 114.710938 91.210938 116.09375 88.054688 116.351562 84.863281 C 116.457031 83.609375 116.382812 82.265625 116.019531 81.03125 C 115.902344 81.578125 115.707031 82.136719 115.429688 82.664062 C 113.96875 85.488281 110.796875 86.753906 108.363281 85.476562 C 105.917969 84.210938 105.113281 80.902344 106.582031 78.074219 C 106.859375 77.527344 107.203125 77.042969 107.589844 76.625 C 106.496094 76.820312 105.433594 77.152344 104.46875 77.558594 Z M 104.46875 77.558594 " fill-opacity="1" fill-rule="evenodd"/><path fill="#010101" d="M 92.777344 83.855469 C 98.34375 75.757812 107.855469 71.78125 114.023438 74.992188 C 120.199219 78.195312 120.695312 87.355469 115.128906 95.464844 C 109.820312 103.210938 100.898438 107.175781 94.730469 104.726562 C 94.441406 104.605469 94.160156 104.476562 93.882812 104.339844 C 87.707031 101.125 87.210938 91.964844 92.777344 83.855469 Z M 92.488281 83.660156 C 90.417969 86.667969 88.90625 90.234375 88.605469 93.898438 C 88.371094 96.882812 88.960938 100.007812 90.890625 102.363281 C 91.675781 103.308594 92.628906 104.082031 93.722656 104.648438 C 94 104.800781 94.300781 104.929688 94.601562 105.046875 C 98.085938 106.433594 102.066406 105.734375 105.390625 104.242188 C 109.421875 102.425781 112.929688 99.300781 115.417969 95.660156 C 117.488281 92.652344 119 89.085938 119.300781 85.421875 C 119.546875 82.449219 118.957031 79.324219 117.015625 76.960938 C 116.242188 76.015625 115.277344 75.242188 114.183594 74.671875 C 110.710938 72.867188 106.539062 73.394531 103.042969 74.855469 C 98.796875 76.625 95.085938 79.878906 92.488281 83.660156 Z M 92.488281 83.660156 " fill-opacity="1" fill-rule="evenodd"/><path fill="#010101" d="M 96.519531 75.046875 L 96.820312 74.875 L 96.5 74.261719 L 96.1875 74.425781 C 92.402344 76.390625 89.550781 79.621094 87.546875 83.351562 C 86.871094 84.617188 86.289062 85.949219 85.820312 87.3125 C 85.625 87.851562 85.433594 88.441406 85.304688 89 L 85.226562 89.332031 L 85.871094 89.515625 L 85.980469 89.195312 C 86.160156 88.636719 86.398438 88.078125 86.621094 87.539062 C 87.191406 86.195312 87.84375 84.886719 88.5625 83.617188 C 90.496094 80.277344 93.132812 76.96875 96.519531 75.046875 Z M 96.351562 74.734375 C 89.023438 78.902344 85.648438 89.085938 85.648438 89.085938 C 85.648438 89.085938 87.964844 79.097656 96.351562 74.734375 Z M 96.351562 74.734375 " fill-opacity="1" fill-rule="evenodd"/><path fill="#010101" d="M 93.378906 72.578125 C 93.691406 71.277344 94.417969 69.375 95.597656 69.074219 L 109.445312 65.605469 C 109.574219 65.746094 109.722656 65.917969 109.808594 66.035156 C 110.195312 66.550781 110.515625 67.164062 110.761719 67.765625 C 104.960938 69.34375 99.171875 70.964844 93.378906 72.578125 Z M 92.90625 73.070312 C 104.90625 69.71875 111.234375 68 111.234375 68 C 110.441406 65.894531 109.539062 65.21875 109.539062 65.21875 L 95.511719 68.742188 C 93.992188 69.117188 93.164062 71.609375 92.90625 73.070312 Z M 92.90625 73.070312 " fill-opacity="1" fill-rule="evenodd"/><path fill="#010101" d="M 95.4375 67.441406 L 108.554688 64.175781 L 107.953125 63.726562 L 94.75 67 Z M 95.4375 67.441406 " fill-opacity="1" fill-rule="evenodd"/><path fill="#010101" d="M 88.734375 66.722656 C 88.972656 65.089844 86.417969 63.382812 83.050781 62.921875 C 79.671875 62.449219 76.757812 63.394531 76.519531 65.023438 C 76.292969 66.65625 78.847656 68.367188 82.214844 68.828125 C 85.59375 69.300781 88.511719 68.355469 88.734375 66.722656 Z M 78.71875 63.523438 C 80.039062 63.09375 81.625 63.082031 82.996094 63.265625 C 84.371094 63.457031 85.894531 63.898438 87.050781 64.683594 C 87.664062 65.089844 88.511719 65.84375 88.390625 66.667969 C 88.273438 67.507812 87.253906 68 86.546875 68.226562 C 85.21875 68.65625 83.628906 68.667969 82.269531 68.484375 C 80.894531 68.289062 79.375 67.851562 78.214844 67.078125 C 77.601562 66.65625 76.757812 65.90625 76.875 65.078125 C 76.992188 64.242188 78.011719 63.746094 78.71875 63.523438 Z M 78.71875 63.523438 " fill-opacity="1" fill-rule="evenodd"/><path fill="#010101" d="M 86.117188 60.386719 L 99.867188 56.742188 L 99.214844 56.183594 L 85.484375 59.945312 Z M 98.675781 56.699219 L 99.128906 56.570312 Z M 98.675781 56.699219 " fill-opacity="1" fill-rule="evenodd"/><path fill="#010101" d="M 88.328125 57.742188 L 95 56.164062 L 90.515625 52.75 L 84.273438 54.1875 Z M 88.414062 57.355469 L 85.023438 54.371094 L 90.429688 53.132812 L 94.195312 55.992188 Z M 88.414062 57.355469 " fill-opacity="1" fill-rule="evenodd"/><path fill="#010101" d="M 69.773438 65.710938 C 69.945312 64.433594 67.941406 63.09375 65.292969 62.726562 C 63.480469 62.46875 61.839844 62.738281 60.917969 63.339844 C 61.742188 62.878906 63.007812 62.652344 64.371094 62.792969 C 66.601562 63.027344 68.25 64.15625 68.046875 65.316406 C 67.855469 66.476562 65.882812 67.226562 63.652344 66.992188 C 63.113281 66.9375 62.601562 66.828125 62.148438 66.679688 C 62.859375 67 63.703125 67.25 64.636719 67.378906 C 67.285156 67.742188 69.59375 67 69.773438 65.710938 Z M 68.421875 65.046875 C 68.390625 64.574219 68.15625 64.167969 67.832031 63.84375 C 68.027344 63.941406 68.21875 64.046875 68.402344 64.164062 C 68.851562 64.476562 69.507812 65.046875 69.421875 65.667969 C 69.335938 66.292969 68.542969 66.65625 68.027344 66.828125 C 67.535156 66.992188 66.984375 67.078125 66.449219 67.109375 C 66.546875 67.078125 66.644531 67.042969 66.738281 67 C 67.46875 66.734375 68.25 66.207031 68.402344 65.378906 C 68.414062 65.273438 68.421875 65.152344 68.421875 65.046875 Z M 68.421875 65.046875 " fill-opacity="1" fill-rule="evenodd"/><path fill="#010101" d="M 69.96875 75.5625 C 67.554688 76.273438 62.878906 77.808594 61.054688 77.882812 C 57.828125 78.023438 55.5 76.292969 55.5 76.292969 C 57.699219 77.925781 60.285156 78.097656 61.066406 78.109375 C 62.234375 78.128906 67.972656 76.5625 70.097656 75.882812 C 71.199219 75.410156 70.890625 75.574219 71.703125 74.765625 C 71.960938 74.519531 72.207031 74.335938 72.402344 74.21875 C 73.335938 73.628906 75.4375 73.15625 76.605469 72.78125 C 75.886719 72.964844 73.902344 73.328125 72.660156 73.789062 C 71.308594 74.296875 71.425781 75.132812 69.96875 75.5625 Z M 69.96875 75.5625 " fill-opacity="1" fill-rule="evenodd"/><g fill="#000000" fill-opacity="1"><g transform="translate(46.120139, 95.369439)"><g><path d="M 3.453125 -6.5625 L 6.046875 -6.5625 L 6.046875 -2.828125 C 6.046875 -1.867188 5.8125 -1.132812 5.34375 -0.625 C 4.882812 -0.113281 4.195312 0.140625 3.28125 0.140625 C 2.375 0.140625 1.6875 -0.113281 1.21875 -0.625 C 0.75 -1.132812 0.515625 -1.867188 0.515625 -2.828125 L 0.515625 -8.953125 C 0.515625 -9.910156 0.75 -10.644531 1.21875 -11.15625 C 1.6875 -11.664062 2.375 -11.921875 3.28125 -11.921875 C 4.195312 -11.921875 4.882812 -11.664062 5.34375 -11.15625 C 5.8125 -10.644531 6.046875 -9.910156 6.046875 -8.953125 L 6.046875 -7.8125 L 4.296875 -7.8125 L 4.296875 -9.078125 C 4.296875 -9.503906 4.207031 -9.800781 4.03125 -9.96875 C 3.851562 -10.144531 3.617188 -10.234375 3.328125 -10.234375 C 3.035156 -10.234375 2.800781 -10.144531 2.625 -9.96875 C 2.457031 -9.800781 2.375 -9.503906 2.375 -9.078125 L 2.375 -2.71875 C 2.375 -2.289062 2.457031 -1.988281 2.625 -1.8125 C 2.800781 -1.644531 3.035156 -1.5625 3.328125 -1.5625 C 3.617188 -1.5625 3.851562 -1.644531 4.03125 -1.8125 C 4.207031 -1.988281 4.296875 -2.289062 4.296875 -2.71875 L 4.296875 -4.890625 L 3.453125 -4.890625 Z M 3.453125 -6.5625 "/></g></g></g><g fill="#000000" fill-opacity="1"><g transform="translate(53.480102, 95.369439)"><g><path d="M 6.671875 0 L 4.796875 0 L 4.484375 -2.140625 L 2.203125 -2.140625 L 1.890625 0 L 0.1875 0 L 2.078125 -11.796875 L 4.78125 -11.796875 Z M 2.4375 -3.734375 L 4.234375 -3.734375 L 3.328125 -9.703125 Z M 2.4375 -3.734375 "/></g></g></g><g fill="#000000" fill-opacity="1"><g transform="translate(61.126379, 95.369439)"><g><path d="M 0.671875 -11.796875 L 2.53125 -11.796875 L 2.53125 -1.6875 L 5.578125 -1.6875 L 5.578125 0 L 0.671875 0 Z M 0.671875 -11.796875 "/></g></g></g><g fill="#000000" fill-opacity="1"><g transform="translate(67.661093, 95.369439)"><g><path d="M 0.671875 -11.796875 L 2.53125 -11.796875 L 2.53125 -1.6875 L 5.578125 -1.6875 L 5.578125 0 L 0.671875 0 Z M 0.671875 -11.796875 "/></g></g></g><g fill="#000000" fill-opacity="1"><g transform="translate(74.195809, 95.369439)"><g><path d="M 2.53125 -6.828125 L 5.0625 -6.828125 L 5.0625 -5.140625 L 2.53125 -5.140625 L 2.53125 -1.6875 L 5.734375 -1.6875 L 5.734375 0 L 0.671875 0 L 0.671875 -11.796875 L 5.734375 -11.796875 L 5.734375 -10.109375 L 2.53125 -10.109375 Z M 2.53125 -6.828125 "/></g></g></g><g fill="#000000" fill-opacity="1"><g transform="translate(81.185257, 95.369439)"><g><path d="M 4.546875 0 C 4.523438 -0.0820312 4.503906 -0.15625 4.484375 -0.21875 C 4.460938 -0.28125 4.441406 -0.363281 4.421875 -0.46875 C 4.398438 -0.570312 4.382812 -0.703125 4.375 -0.859375 C 4.375 -1.015625 4.375 -1.210938 4.375 -1.453125 L 4.375 -3.296875 C 4.375 -3.847656 4.28125 -4.234375 4.09375 -4.453125 C 3.90625 -4.679688 3.597656 -4.796875 3.171875 -4.796875 L 2.53125 -4.796875 L 2.53125 0 L 0.671875 0 L 0.671875 -11.796875 L 3.46875 -11.796875 C 4.4375 -11.796875 5.132812 -11.566406 5.5625 -11.109375 C 6 -10.660156 6.21875 -9.984375 6.21875 -9.078125 L 6.21875 -8.15625 C 6.21875 -6.9375 5.8125 -6.140625 5 -5.765625 C 5.46875 -5.566406 5.789062 -5.25 5.96875 -4.8125 C 6.144531 -4.382812 6.234375 -3.863281 6.234375 -3.25 L 6.234375 -1.4375 C 6.234375 -1.144531 6.242188 -0.890625 6.265625 -0.671875 C 6.285156 -0.453125 6.34375 -0.226562 6.4375 0 Z M 2.53125 -10.109375 L 2.53125 -6.484375 L 3.25 -6.484375 C 3.59375 -6.484375 3.863281 -6.570312 4.0625 -6.75 C 4.257812 -6.9375 4.359375 -7.265625 4.359375 -7.734375 L 4.359375 -8.890625 C 4.359375 -9.316406 4.28125 -9.625 4.125 -9.8125 C 3.976562 -10.007812 3.742188 -10.109375 3.421875 -10.109375 Z M 2.53125 -10.109375 "/></g></g></g><g fill="#000000" fill-opacity="1"><g transform="translate(88.747324, 95.369439)"><g><path d="M 2.40625 -3.90625 L 0.0625 -11.796875 L 2 -11.796875 L 3.421875 -6.421875 L 4.828125 -11.796875 L 6.609375 -11.796875 L 4.265625 -3.90625 L 4.265625 0 L 2.40625 0 Z M 2.40625 -3.90625 "/></g></g></g><g fill="#000000" fill-opacity="1"><g transform="translate(96.208342, 95.369439)"><g/></g></g><g fill="#000000" fill-opacity="1"><g transform="translate(99.610472, 95.369439)"><g><path d="M 2.375 -2.71875 C 2.375 -2.289062 2.457031 -1.988281 2.625 -1.8125 C 2.800781 -1.632812 3.035156 -1.546875 3.328125 -1.546875 C 3.617188 -1.546875 3.851562 -1.632812 4.03125 -1.8125 C 4.207031 -1.988281 4.296875 -2.289062 4.296875 -2.71875 L 4.296875 -9.078125 C 4.296875 -9.503906 4.207031 -9.800781 4.03125 -9.96875 C 3.851562 -10.144531 3.617188 -10.234375 3.328125 -10.234375 C 3.035156 -10.234375 2.800781 -10.144531 2.625 -9.96875 C 2.457031 -9.800781 2.375 -9.503906 2.375 -9.078125 Z M 0.515625 -8.953125 C 0.515625 -9.910156 0.753906 -10.644531 1.234375 -11.15625 C 1.722656 -11.664062 2.421875 -11.921875 3.328125 -11.921875 C 4.242188 -11.921875 4.941406 -11.664062 5.421875 -11.15625 C 5.898438 -10.644531 6.140625 -9.910156 6.140625 -8.953125 L 6.140625 -2.828125 C 6.140625 -1.867188 5.898438 -1.132812 5.421875 -0.625 C 4.941406 -0.113281 4.242188 0.140625 3.328125 0.140625 C 2.421875 0.140625 1.722656 -0.113281 1.234375 -0.625 C 0.753906 -1.132812 0.515625 -1.867188 0.515625 -2.828125 Z M 0.515625 -8.953125 "/></g></g></g><g fill="#000000" fill-opacity="1"><g transform="translate(107.071491, 95.369439)"><g><path d="M 2.53125 -6.546875 L 4.921875 -6.546875 L 4.921875 -4.875 L 2.53125 -4.875 L 2.53125 0 L 0.671875 0 L 0.671875 -11.796875 L 5.578125 -11.796875 L 5.578125 -10.109375 L 2.53125 -10.109375 Z M 2.53125 -6.546875 "/></g></g></g><g fill="#000000" fill-opacity="1"><g transform="translate(113.656734, 95.369439)"><g/></g></g><g fill="#000000" fill-opacity="1"><g transform="translate(117.058864, 95.369439)"><g><path d="M 0.171875 -1.6875 C 0.265625 -1.675781 0.367188 -1.671875 0.484375 -1.671875 C 0.597656 -1.671875 0.707031 -1.671875 0.8125 -1.671875 C 1.101562 -1.671875 1.351562 -1.742188 1.5625 -1.890625 C 1.769531 -2.035156 1.875 -2.335938 1.875 -2.796875 L 1.875 -11.796875 L 3.71875 -11.796875 L 3.71875 -2.9375 C 3.71875 -2.332031 3.644531 -1.835938 3.5 -1.453125 C 3.351562 -1.078125 3.15625 -0.78125 2.90625 -0.5625 C 2.664062 -0.34375 2.382812 -0.1875 2.0625 -0.09375 C 1.738281 -0.0078125 1.40625 0.03125 1.0625 0.03125 C 0.894531 0.03125 0.742188 0.03125 0.609375 0.03125 C 0.472656 0.03125 0.328125 0.0195312 0.171875 0 Z M 0.171875 -1.6875 "/></g></g></g><g fill="#000000" fill-opacity="1"><g transform="translate(122.162023, 95.369439)"><g><path d="M 2.375 -2.71875 C 2.375 -2.289062 2.457031 -1.988281 2.625 -1.8125 C 2.800781 -1.632812 3.035156 -1.546875 3.328125 -1.546875 C 3.617188 -1.546875 3.851562 -1.632812 4.03125 -1.8125 C 4.207031 -1.988281 4.296875 -2.289062 4.296875 -2.71875 L 4.296875 -9.078125 C 4.296875 -9.503906 4.207031 -9.800781 4.03125 -9.96875 C 3.851562 -10.144531 3.617188 -10.234375 3.328125 -10.234375 C 3.035156 -10.234375 2.800781 -10.144531 2.625 -9.96875 C 2.457031 -9.800781 2.375 -9.503906 2.375 -9.078125 Z M 0.515625 -8.953125 C 0.515625 -9.910156 0.753906 -10.644531 1.234375 -11.15625 C 1.722656 -11.664062 2.421875 -11.921875 3.328125 -11.921875 C 4.242188 -11.921875 4.941406 -11.664062 5.421875 -11.15625 C 5.898438 -10.644531 6.140625 -9.910156 6.140625 -8.953125 L 6.140625 -2.828125 C 6.140625 -1.867188 5.898438 -1.132812 5.421875 -0.625 C 4.941406 -0.113281 4.242188 0.140625 3.328125 0.140625 C 2.421875 0.140625 1.722656 -0.113281 1.234375 -0.625 C 0.753906 -1.132812 0.515625 -1.867188 0.515625 -2.828125 Z M 0.515625 -8.953125 "/></g></g></g><g fill="#000000" fill-opacity="1"><g transform="translate(129.623036, 95.369439)"><g><path d="M 2.4375 -11.796875 L 2.4375 -2.6875 C 2.4375 -2.269531 2.523438 -1.972656 2.703125 -1.796875 C 2.878906 -1.628906 3.113281 -1.546875 3.40625 -1.546875 C 3.695312 -1.546875 3.925781 -1.628906 4.09375 -1.796875 C 4.269531 -1.972656 4.359375 -2.269531 4.359375 -2.6875 L 4.359375 -11.796875 L 6.109375 -11.796875 L 6.109375 -2.8125 C 6.109375 -1.851562 5.875 -1.117188 5.40625 -0.609375 C 4.945312 -0.0976562 4.265625 0.15625 3.359375 0.15625 C 2.441406 0.15625 1.75 -0.0976562 1.28125 -0.609375 C 0.820312 -1.117188 0.59375 -1.851562 0.59375 -2.8125 L 0.59375 -11.796875 Z M 2.4375 -11.796875 "/></g></g></g><g fill="#000000" fill-opacity="1"><g transform="translate(137.117739, 95.369439)"><g><path d="M 4.546875 0 C 4.523438 -0.0820312 4.503906 -0.15625 4.484375 -0.21875 C 4.460938 -0.28125 4.441406 -0.363281 4.421875 -0.46875 C 4.398438 -0.570312 4.382812 -0.703125 4.375 -0.859375 C 4.375 -1.015625 4.375 -1.210938 4.375 -1.453125 L 4.375 -3.296875 C 4.375 -3.847656 4.28125 -4.234375 4.09375 -4.453125 C 3.90625 -4.679688 3.597656 -4.796875 3.171875 -4.796875 L 2.53125 -4.796875 L 2.53125 0 L 0.671875 0 L 0.671875 -11.796875 L 3.46875 -11.796875 C 4.4375 -11.796875 5.132812 -11.566406 5.5625 -11.109375 C 6 -10.660156 6.21875 -9.984375 6.21875 -9.078125 L 6.21875 -8.15625 C 6.21875 -6.9375 5.8125 -6.140625 5 -5.765625 C 5.46875 -5.566406 5.789062 -5.25 5.96875 -4.8125 C 6.144531 -4.382812 6.234375 -3.863281 6.234375 -3.25 L 6.234375 -1.4375 C 6.234375 -1.144531 6.242188 -0.890625 6.265625 -0.671875 C 6.285156 -0.453125 6.34375 -0.226562 6.4375 0 Z M 2.53125 -10.109375 L 2.53125 -6.484375 L 3.25 -6.484375 C 3.59375 -6.484375 3.863281 -6.570312 4.0625 -6.75 C 4.257812 -6.9375 4.359375 -7.265625 4.359375 -7.734375 L 4.359375 -8.890625 C 4.359375 -9.316406 4.28125 -9.625 4.125 -9.8125 C 3.976562 -10.007812 3.742188 -10.109375 3.421875 -10.109375 Z M 2.53125 -10.109375 "/></g></g></g><g fill="#000000" fill-opacity="1"><g transform="translate(144.679801, 95.369439)"><g><path d="M 2.328125 -8.546875 L 2.328125 0 L 0.65625 0 L 0.65625 -11.796875 L 2.984375 -11.796875 L 4.890625 -4.734375 L 4.890625 -11.796875 L 6.53125 -11.796875 L 6.53125 0 L 4.625 0 Z M 2.328125 -8.546875 "/></g></g></g><g fill="#000000" fill-opacity="1"><g transform="translate(152.662916, 95.369439)"><g><path d="M 2.53125 -6.828125 L 5.0625 -6.828125 L 5.0625 -5.140625 L 2.53125 -5.140625 L 2.53125 -1.6875 L 5.734375 -1.6875 L 5.734375 0 L 0.671875 0 L 0.671875 -11.796875 L 5.734375 -11.796875 L 5.734375 -10.109375 L 2.53125 -10.109375 Z M 2.53125 -6.828125 "/></g></g></g><g fill="#000000" fill-opacity="1"><g transform="translate(159.65236, 95.369439)"><g><path d="M 2.40625 -3.90625 L 0.0625 -11.796875 L 2 -11.796875 L 3.421875 -6.421875 L 4.828125 -11.796875 L 6.609375 -11.796875 L 4.265625 -3.90625 L 4.265625 0 L 2.40625 0 Z M 2.40625 -3.90625 "/></g></g></g><g fill="#000000" fill-opacity="1"><g transform="translate(167.113378, 95.369439)"><g><path d="M 0.4375 -8.953125 C 0.4375 -9.910156 0.660156 -10.644531 1.109375 -11.15625 C 1.566406 -11.664062 2.253906 -11.921875 3.171875 -11.921875 C 4.078125 -11.921875 4.753906 -11.664062 5.203125 -11.15625 C 5.660156 -10.644531 5.890625 -9.910156 5.890625 -8.953125 L 5.890625 -8.5 L 4.140625 -8.5 L 4.140625 -9.078125 C 4.140625 -9.503906 4.054688 -9.800781 3.890625 -9.96875 C 3.734375 -10.144531 3.507812 -10.234375 3.21875 -10.234375 C 2.925781 -10.234375 2.695312 -10.144531 2.53125 -9.96875 C 2.375 -9.800781 2.296875 -9.503906 2.296875 -9.078125 C 2.296875 -8.671875 2.382812 -8.3125 2.5625 -8 C 2.738281 -7.695312 2.960938 -7.40625 3.234375 -7.125 C 3.503906 -6.851562 3.789062 -6.578125 4.09375 -6.296875 C 4.40625 -6.023438 4.695312 -5.726562 4.96875 -5.40625 C 5.238281 -5.082031 5.460938 -4.710938 5.640625 -4.296875 C 5.816406 -3.878906 5.90625 -3.390625 5.90625 -2.828125 C 5.90625 -1.867188 5.671875 -1.132812 5.203125 -0.625 C 4.742188 -0.113281 4.0625 0.140625 3.15625 0.140625 C 2.238281 0.140625 1.546875 -0.113281 1.078125 -0.625 C 0.617188 -1.132812 0.390625 -1.867188 0.390625 -2.828125 L 0.390625 -3.640625 L 2.140625 -3.640625 L 2.140625 -2.71875 C 2.140625 -2.289062 2.222656 -1.988281 2.390625 -1.8125 C 2.566406 -1.644531 2.800781 -1.5625 3.09375 -1.5625 C 3.382812 -1.5625 3.617188 -1.644531 3.796875 -1.8125 C 3.972656 -1.988281 4.0625 -2.289062 4.0625 -2.71875 C 4.0625 -3.113281 3.96875 -3.46875 3.78125 -3.78125 C 3.601562 -4.09375 3.378906 -4.382812 3.109375 -4.65625 C 2.847656 -4.925781 2.5625 -5.195312 2.25 -5.46875 C 1.9375 -5.75 1.644531 -6.050781 1.375 -6.375 C 1.113281 -6.707031 0.890625 -7.082031 0.703125 -7.5 C 0.523438 -7.914062 0.4375 -8.398438 0.4375 -8.953125 Z M 0.4375 -8.953125 "/></g></g></g></svg>